<svg xmlns="http://www.w3.org/2000/svg" width="30" height="30" viewBox="0 0 30 30">
    <g fill="#1F1F1F" fill-rule="evenodd">
        <path d="M20.708 20.71c-.319.16-.661.185-1.009.183a5.552 5.552 0 0 1-1.678-.274c-1.346-.445-2.061-1.958-1.545-3.276.367-.935.837-1.823 1.272-2.727.24-.496.485-.988.695-1.497.06-.144.12-.29.123-.452.003-.176-.009-.35-.19-.438a.516.516 0 0 0-.564.054c-.164.121-.28.285-.373.463-.33.633-.659 1.266-.982 1.902-.584 1.148-1.161 2.299-1.745 3.447-.203.4-.473.735-.94.842a1.401 1.401 0 0 1-.84-.06c-.407-.16-.576-.607-.41-1.105.257-.77.592-1.509.89-2.261.228-.573.468-1.141.664-1.726.05-.151.075-.305.07-.464-.012-.333-.207-.6-.477-.65-.283-.052-.617.125-.737.413-.227.54-.443 1.086-.66 1.63-.569 1.426-1.135 2.853-1.704 4.28a3.796 3.796 0 0 1-.15.329c-.353.686-.91.99-1.687.955-.882-.04-1.667-.614-1.89-1.439a1.99 1.99 0 0 1 .018-1.112c.59-1.948 1.147-3.908 1.848-5.822.134-.37.277-.735.446-1.09.432-.906 1.476-1.506 2.46-1.418.19.017.367.08.537.159.372.174.748.342 1.113.53.268.137.51.11.754-.044.254-.16.46-.375.68-.573.435-.392.939-.473 1.49-.358.293.061.496.268.707.459.094.085.18.18.277.263.175.15.334.17.532.046.677-.422 1.4-.388 2.117-.174.63.19.933.693 1.07 1.31.12.54-.033 1.044-.205 1.544-.341.997-.817 1.938-1.229 2.905-.31.73-.623 1.458-.763 2.245-.041.232-.069.465-.03.703.045.291.205.482.472.594.323.136.67.15 1.01.209.179.03.356.064.524.137.286.124.426.342.443.65.017.325-.113.562-.404.708m4.541-5.135c1.507-1.519 1.04-4.094-.916-4.951-.316-.139-.38-.26-.38-.576-.03-1.567-.552-2.9-1.648-3.955-1.605-1.544-3.51-1.975-5.65-1.352a.402.402 0 0 1-.352-.04c-1.428-.838-2.96-1.124-4.577-.76-2.14.48-3.632 1.763-4.501 3.772-.044.1-.09.152-.205.165-.228.026-.45.09-.669.162-2.466.827-3.568 3.74-2.278 6.04.078.14.051.204-.05.31-1.141 1.194-1.588 2.615-1.208 4.223.44 1.858 1.652 2.987 3.514 3.411.13.03.166.08.173.208.038.68.207 1.326.524 1.93 1 1.905 3.005 2.914 5.142 2.577a4.397 4.397 0 0 0 2.05-.871c.111-.087.164-.099.278-.008.826.66 1.773.95 2.817.787 1.51-.238 2.495-1.119 2.965-2.571.033-.103.076-.143.187-.139.394.013.786-.029 1.172-.109 3.516-.734 5.307-4.73 3.516-7.851-.094-.164-.1-.264.058-.364.014-.01.026-.026.038-.038zM22.166 24.82a1.321 1.321 0 0 0-1.304 1.313 1.303 1.303 0 0 0 1.318 1.31c.733-.001 1.317-.584 1.314-1.315a1.323 1.323 0 0 0-1.328-1.309M1.264 12.642A1.255 1.255 0 0 0 0 13.892a1.245 1.245 0 0 0 1.252 1.26 1.255 1.255 0 0 0 1.259-1.257 1.262 1.262 0 0 0-1.247-1.253M16.781 3.49a1.244 1.244 0 0 0 1.245-1.25c0-.684-.55-1.237-1.232-1.24a1.234 1.234 0 0 0-1.253 1.237 1.242 1.242 0 0 0 1.24 1.254M26 7.78c-.592 0-1.064.47-1.065 1.058a1.068 1.068 0 0 0 1.06 1.065 1.064 1.064 0 0 0 1.063-1.062A1.055 1.055 0 0 0 26 7.78M6.019 6.715c.53 0 .944-.411.946-.938a.938.938 0 0 0-.945-.959.926.926 0 0 0-.951.948c0 .544.405.95.95.949M14.26 27.198a.805.805 0 0 0-.816.815.803.803 0 0 0 .807.805.806.806 0 0 0 .818-.813.809.809 0 0 0-.809-.807M29.414 11.635a.58.58 0 0 0-.6.57.584.584 0 0 0 .584.607.585.585 0 0 0 .591-.581.58.58 0 0 0-.575-.596M5.093 22.885a.584.584 0 1 0-.005 1.17.585.585 0 0 0 .005-1.17M8.728 3.34c.367.003.672-.3.674-.668A.666.666 0 0 0 8.735 2a.664.664 0 0 0-.673.665.671.671 0 0 0 .666.675"/>
    </g>
</svg>
