<?xml version="1.0" encoding="UTF-8"?>
<svg width="72px" height="24px" viewBox="0 0 72 24" version="1.1" xmlns="http://www.w3.org/2000/svg" xmlns:xlink="http://www.w3.org/1999/xlink">
    <!-- Generator: Sketch 57 (83077) - https://sketch.com -->
    <title>LOGO/SMALL/White Copy</title>
    <desc>Created with Sketch.</desc>
    <g id="Page-1" stroke="none" stroke-width="1" fill="none" fill-rule="evenodd">
        <g id="LOGO/SMALL/White" fill="#FFFFFF">
            <g id="Kin_logo_RGB-04-Copy">
                <path d="M15.7813333,11.8693333 L15.7813333,12.016 C15.7871993,14.1059241 17.480739,15.798272 19.5706667,15.8026667 L21.6506667,15.8026667 C22.5122309,15.8026667 23.2106667,16.5011025 23.2106667,17.3626667 L23.2106667,23.7626667 L16.7146667,23.7626667 C15.8531025,23.7626667 15.1546667,23.0642309 15.1546667,22.2026667 L15.1546667,19.5786667 C15.1488147,17.4893444 13.4573177,15.7966561 11.368,15.7893333 L11.2213333,15.7893333 C9.13201568,15.7966561 7.44051862,17.4893444 7.43466667,19.5786667 L7.43466667,23.7626667 L0.173333333,23.7626667 L0.173333333,0.133333333 L7.43466667,0.133333333 L7.43466667,4.368 C7.43906138,6.45792769 9.13140925,8.15146736 11.2213333,8.15733333 L11.368,8.15733333 C13.4579241,8.15146736 15.150272,6.45792769 15.1546667,4.368 L15.1546667,1.70133333 C15.1546667,1.28759561 15.3190233,0.890803505 15.6115801,0.598246755 C15.9041368,0.305690004 16.3009289,0.141333333 16.7146667,0.141333333 L23.2,0.141333333 L23.2,6.54133333 C23.2,7.40289754 22.5015642,8.10133333 21.64,8.10133333 L19.56,8.10133333 C17.4814747,8.1114891 15.7973647,9.79084508 15.7813333,11.8693333 L15.7813333,11.8693333 Z" id="Path"></path>
                <polygon id="Path" fill-rule="nonzero" points="39.128 0.133333333 39.128 23.752 32.2666667 23.752 32.2666667 0.133333333"></polygon>
                <path d="M71.264,0.055995114 L71.264,23.7520001 L64.984,23.7520001 C64.473407,23.7520001 63.9951429,23.50212 63.704,23.0826667 L54.8373333,10.352 L54.8373333,23.7520001 L48.1706667,23.7520001 L48.1706667,0.055995114 L54.456,0.055995114 C54.9662118,0.0547229047 55.4445761,0.303870963 55.736,0.722666667 L64.6,13.4533333 L64.6,0.055995114 L71.264,0.055995114 Z" id="Path"></path>
            </g>
        </g>
    </g>
</svg>