<svg xmlns="http://www.w3.org/2000/svg" xmlns:xlink="http://www.w3.org/1999/xlink" width="30" height="30" viewBox="0 0 30 30">
    <defs>
        <path id="a" d="M0 .023h29.986v26.024H0z"/>
    </defs>
    <g fill="none" fill-rule="evenodd">
        <g transform="translate(0 2)">
            <mask id="b" fill="#fff">
                <use xlink:href="#a"/>
            </mask>
            <path fill="#1F1F1F" d="M11.357 24.55c.007-.074.005-.118.016-.158.186-.667.375-1.334.56-2.002.165-.599.325-1.199.49-1.798.139-.507.28-1.015.422-1.522.148-.529.294-1.058.448-1.585a.55.55 0 0 1 .133-.211c2.323-2.432 4.648-4.862 6.973-7.292l2.543-2.658c.22-.231.355-.49.316-.827-.04-.357-.382-.699-.738-.736-.292-.03-.535.081-.779.216l-8.5 4.717c-2.236 1.24-4.471 2.481-6.705 3.725-.108.06-.196.07-.312.02-1.493-.66-2.99-1.315-4.485-1.972-.263-.116-.53-.226-.785-.357-.486-.25-.777-.654-.905-1.183-.201-.83.237-1.68.95-2.012.289-.134.598-.225.9-.326.679-.227 1.359-.449 2.038-.673l1.885-.62c.62-.204 1.24-.407 1.859-.612.624-.205 1.247-.412 1.871-.618l2.217-.733 1.693-.556 1.859-.611 1.87-.618 1.86-.612 2.076-.684 2.013-.664 1.884-.62c.62-.205 1.238-.412 1.858-.615.325-.106.646-.24.98-.3a1.787 1.787 0 0 1 1.891.892c.265.465.285.955.155 1.465-.117.458-.218.92-.327 1.38l-.322 1.367-.324 1.38-.319 1.355-.325 1.38-.324 1.381-.32 1.354-.325 1.38-.318 1.354-.329 1.394-.315 1.355-.319 1.354-.328 1.393-.324 1.367-.318 1.355c-.109.464-.213.93-.328 1.393-.055.222-.101.454-.202.656-.247.496-.632.844-1.187.98-.617.153-1.159.002-1.641-.393-1.815-1.483-3.628-2.967-5.442-4.452-.165-.134-.163-.135-.33-.01a13444.68 13444.68 0 0 1-4.459 3.338c-.03.023-.064.04-.125.08" mask="url(#b)"/>
        </g>
        <path fill="#1F1F1F" d="M9.568 26.148l-.195-.91-.328-1.518-.258-1.201-.263-1.215-.264-1.228-.325-1.505c-.05-.234-.096-.468-.15-.7-.023-.1.018-.15.098-.194a3580.02 3580.02 0 0 0 4.015-2.226l5.559-3.087c.049-.027.1-.051.15-.077l.023.028c-.04.048-.078.1-.122.145l-5.037 5.268c-.169.176-.33.36-.506.527-.206.198-.289.45-.361.713-.19.69-.384 1.378-.574 2.068-.186.672-.367 1.345-.553 2.018-.204.741-.412 1.482-.618 2.223-.067.243-.13.487-.198.73-.014.05-.04.096-.062.145l-.031-.004"/>
    </g>
</svg>
