<svg xmlns="http://www.w3.org/2000/svg" width="30" height="30" viewBox="0 0 30 30">
    <path fill="#1F1F1F" fill-rule="evenodd" d="M16.082 7c5.193.011 10.59.136 11.997 1.543C29.583 10.048 30 11.849 30 17.973v.386c-.018 5.816-.449 7.572-1.921 9.045-1.506 1.505-7.576 1.543-13.079 1.543h-.36c-5.404-.002-11.246-.07-12.718-1.543C.417 25.9 0 24.1 0 17.974v-.386c.018-5.816.449-7.572 1.922-9.045C3.328 7.136 8.725 7.01 13.918 7zm-4.557 5.678c-.23-.132-.416-.024-.416.24v10.111c0 .264.187.372.416.24l8.756-5.056c.228-.132.228-.348 0-.479z"/>
</svg>
